<?xml version="1.0" encoding="UTF-8"?>
<svg version="1.1" xmlns="http://www.w3.org/2000/svg" width="500" height="500">
<path d="M0 0 C165 0 330 0 500 0 C500 165 500 330 500 500 C335 500 170 500 0 500 C0 335 0 170 0 0 Z " fill="#F6F6EF" transform="translate(0,0)"/>
<path d="M0 0 C56.1 0 112.2 0 170 0 C170 2.31 170 4.62 170 7 C158.12 7 146.24 7 134 7 C134 19.21 134 31.42 134 44 C146.21 44 158.42 44 171 44 C171 31.79 171 19.58 171 7 C173.31 7 175.62 7 178 7 C178 21.52 178 36.04 178 51 C173.05 51 168.1 51 163 51 C163 63.54 163 76.08 163 89 C165.64 89 168.28 89 171 89 C171 91.31 171 93.62 171 96 C173.31 96 175.62 96 178 96 C178 98.31 178 100.62 178 103 C175.69 103 173.38 103 171 103 C171 105.64 171 108.28 171 111 C168.36 111 165.72 111 163 111 C163 118.26 163 125.52 163 133 C165.64 133 168.28 133 171 133 C171 135.64 171 138.28 171 141 C173.31 141 175.62 141 178 141 C178 143.31 178 145.62 178 148 C175.36 148 172.72 148 170 148 C170 150.31 170 152.62 170 155 C158.45 155 146.9 155 135 155 C135.33 155.66 135.66 156.32 136 157 C136.85227774 169.74225083 136.30822213 179.23183076 127.75 189.3125 C119.96729359 197.41469353 119.96729359 197.41469353 115 199 C107.41988219 198.5800205 101.32707726 193.5695977 96.28515625 188.16015625 C91.24641043 181.40609271 89.51934072 175.52252865 89.75 167.3125 C89.75515625 166.56677734 89.7603125 165.82105469 89.765625 165.05273438 C89.81650735 161.48778942 90.13047059 158.47811762 91 155 C58.66 155 26.32 155 -7 155 C-7 152.69 -7 150.38 -7 148 C-9.64 148 -12.28 148 -15 148 C-15 128.53 -15 109.06 -15 89 C-17.31 89 -19.62 89 -22 89 C-22 76.79 -22 64.58 -22 52 C-19.69 52 -17.38 52 -15 52 C-15 49.36 -15 46.72 -15 44 C-12.36 44 -9.72 44 -7 44 C-7 31.79 -7 19.58 -7 7 C-4.69 7 -2.38 7 0 7 C0 4.69 0 2.38 0 0 Z " fill="#010201" transform="translate(172,174)"/>
<path d="M0 0 C30.36 0 60.72 0 92 0 C92 31.68 92 63.36 92 96 C59.33 96 26.66 96 -7 96 C-7 113.16 -7 130.32 -7 148 C-9.64 148 -12.28 148 -15 148 C-15 128.53 -15 109.06 -15 89 C-17.31 89 -19.62 89 -22 89 C-22 76.79 -22 64.58 -22 52 C-19.69 52 -17.38 52 -15 52 C-15 49.36 -15 46.72 -15 44 C-12.36 44 -9.72 44 -7 44 C-7 31.79 -7 19.58 -7 7 C-4.69 7 -2.38 7 0 7 C0 4.69 0 2.38 0 0 Z " fill="#03AE44" transform="translate(172,174)"/>
<path d="M0 0 C30.36 0 60.72 0 92 0 C92 11.22 92 22.44 92 34 C93.32 33.67 94.64 33.34 96 33 C97.34133906 33.65040891 98.67398795 34.31888748 100 35 C102.68969588 35.30618999 102.68969588 35.30618999 105.61328125 35.265625 C106.69673828 35.26820313 107.78019531 35.27078125 108.89648438 35.2734375 C110.02376953 35.26570313 111.15105469 35.25796875 112.3125 35.25 C113.42818359 35.25773437 114.54386719 35.26546875 115.69335938 35.2734375 C121.51319354 35.25963825 126.51459698 34.99469201 132 33 C132.33 33.33 132.66 33.66 133 34 C133.33 23.11 133.66 12.22 134 1 C146.21 1 158.42 1 171 1 C171 3.31 171 5.62 171 8 C168.36 8 165.72 8 163 8 C163 15.26 163 22.52 163 30 C165.64 30 168.28 30 171 30 C171 32.64 171 35.28 171 38 C159.78 38 148.56 38 137 38 C136.67 39.32 136.34 40.64 136 42 C135.34 42.99 134.68 43.98 134 45 C133.78863755 47.76338554 133.78863755 47.76338554 133.9453125 50.8828125 C133.96980469 52.05070312 133.99429688 53.21859375 134.01953125 54.421875 C134.08918352 56.8674435 134.16714743 59.3127911 134.25390625 61.7578125 C134.45211678 72.3912242 132.2175747 79.4077735 124.92578125 87.19921875 C121.04793321 90.82536063 117.42607068 93.84837058 112 94.1875 C103.91647981 90.98777326 96.77619107 84.32878166 93.1875 76.375 C90.36670596 68.35800642 90.81556472 61.29104694 92 53 C92.48966281 47.60150441 92.48966281 47.60150441 90.5 42.6875 C90.005 42.130625 89.51 41.57375 89 41 C89 40.01 89 39.02 89 38 C59.63 38 30.26 38 0 38 C0 25.46 0 12.92 0 0 Z " fill="#04AC44" transform="translate(172,277)"/>
<path d="M0 0 C0.33 0 0.66 0 1 0 C1 12.21 1 24.42 1 37 C13.21 37 25.42 37 38 37 C38 24.79 38 12.58 38 0 C40.31 0 42.62 0 45 0 C45 14.52 45 29.04 45 44 C40.05 44 35.1 44 30 44 C30 56.54 30 69.08 30 82 C32.64 82 35.28 82 38 82 C38 84.31 38 86.62 38 89 C40.31 89 42.62 89 45 89 C45 91.31 45 93.62 45 96 C42.69 96 40.38 96 38 96 C37.67 94.02 37.34 92.04 37 90 C18.685 89.505 18.685 89.505 0 89 C0 59.63 0 30.26 0 0 Z " fill="#04A942" transform="translate(305,181)"/>
<path d="M0 0 C17.82 0 35.64 0 54 0 C54 12.21 54 24.42 54 37 C36.18 37 18.36 37 0 37 C0 24.79 0 12.58 0 0 Z " fill="#F6F6EF" transform="translate(210,181)"/>
<path d="M0 0 C27.72 0 55.44 0 84 0 C84 7.26 84 14.52 84 22 C56.28 22 28.56 22 0 22 C0 14.74 0 7.48 0 0 Z " fill="#F6F6EF" transform="translate(180,285)"/>
<path d="M0 0 C30.36 0 60.72 0 92 0 C92 2.64 92 5.28 92 8 C64.28 8 36.56 8 8 8 C8 15.26 8 22.52 8 30 C35.72 30 63.44 30 92 30 C93 35 93 35 91.60150146 37.28985596 C87.93586247 39.69953005 84.60982594 39.4851621 80.37597656 39.36230469 C79.07299873 39.34855049 79.07299873 39.34855049 77.74369812 39.33451843 C74.87537462 39.29947424 72.00843811 39.23580268 69.140625 39.171875 C67.15096566 39.14197437 65.16127873 39.1138608 63.17156982 39.08746338 C57.93674209 39.01320675 52.70264169 38.91466416 47.46832275 38.81109619 C42.1262443 38.70968292 36.78383483 38.63119044 31.44140625 38.55078125 C20.96045344 38.38964642 10.48026911 38.20074242 0 38 C0 25.46 0 12.92 0 0 Z " fill="#04A641" transform="translate(172,277)"/>
<path d="M0 0 C13.86 0.33 27.72 0.66 42 1 C42 3.31 42 5.62 42 8 C39.36 8 36.72 8 34 8 C34 10.31 34 12.62 34 15 C22.45 15 10.9 15 -1 15 C-0.67 15.66 -0.34 16.32 0 17 C0.85227774 29.74225083 0.30822213 39.23183076 -8.25 49.3125 C-16.03270641 57.41469353 -16.03270641 57.41469353 -21 59 C-28.58011781 58.5800205 -34.67292274 53.5695977 -39.71484375 48.16015625 C-44.75358957 41.40609271 -46.48065928 35.52252865 -46.25 27.3125 C-46.24484375 26.56677734 -46.2396875 25.82105469 -46.234375 25.05273438 C-46.18349265 21.48778942 -45.86952941 18.47811762 -45 15 C-77.34 15 -109.68 15 -143 15 C-143 12.69 -143 10.38 -143 8 C-130.10933721 7.84643674 -117.21862506 7.69825496 -104.32782078 7.5570364 C-98.34278019 7.49129926 -92.35777309 7.42367433 -86.37280273 7.35180664 C-80.60221003 7.28258147 -74.8315821 7.2182216 -69.06089592 7.15730476 C-66.85395254 7.13313908 -64.64702798 7.10718908 -62.44012642 7.07946587 C-59.36058628 7.04107866 -56.2810416 7.00890845 -53.20141602 6.97827148 C-52.27928818 6.96532547 -51.35716034 6.95237946 -50.40708923 6.93904114 C-48.27137217 6.92102245 -46.13531255 6.95469686 -44 7 C-43 8 -43 8 -42.875 11.625 C-42.91620652 15.48467753 -43.45413641 19.17895486 -44 23 C-44.5974238 32.11071292 -42.58472151 40.02368435 -36.73828125 47.17578125 C-32.98133716 51.1184619 -29.08211604 54.11399317 -24.0625 56.25 C-18.14240388 55.76672685 -13.90009651 52.02245121 -9.9375 47.8046875 C-4.98993259 41.72330256 -2.69079423 36.61839166 -2.91015625 28.6484375 C-2.93013672 27.46765625 -2.95011719 26.286875 -2.97070312 25.0703125 C-3.03209747 22.59886339 -3.09722546 20.12750431 -3.16601562 17.65625 C-3.18470703 16.47804688 -3.20339844 15.29984375 -3.22265625 14.0859375 C-3.26531616 12.4779126 -3.26531616 12.4779126 -3.30883789 10.83740234 C-2.9554803 7.59098188 -1.98765185 6.50064693 0 4 C0 2.68 0 1.36 0 0 Z " fill="#00AC41" transform="translate(308,314)"/>
<path d="M0 0 C1.32 0.66 2.64 1.32 4 2 C3.125 6.75 3.125 6.75 2 9 C1.9047301 10.47668337 1.87014041 11.95775457 1.875 13.4375 C1.87242187 14.21996094 1.86984375 15.00242187 1.8671875 15.80859375 C1.91617452 18.17895347 1.91617452 18.17895347 3 21 C3.86945571 30.23618523 2.76036716 38.58252189 -2.61328125 46.32421875 C-6.55532255 51.05292018 -10.68364435 55.27905312 -16.875 56.625 C-23.93622078 55.21275584 -28.79242511 49.72244527 -32.74609375 43.98046875 C-39.89604673 32.68755236 -37.14274986 19.58865542 -35 7 C-30.07872966 6.83317728 -26.49656104 6.75171948 -22 9 C-22.01160156 9.67546875 -22.02320313 10.3509375 -22.03515625 11.046875 C-22.04417969 11.93890625 -22.05320312 12.8309375 -22.0625 13.75 C-22.07410156 14.63171875 -22.08570313 15.5134375 -22.09765625 16.421875 C-22.00826198 18.7818838 -21.66912821 20.74498524 -21 23 C-21.99 23.33 -22.98 23.66 -24 24 C-24.99 26.475 -24.99 26.475 -26 29 C-20.06 29 -14.12 29 -8 29 C-8.66 27.68 -9.32 26.36 -10 25 C-11.32 24.67 -12.64 24.34 -14 24 C-13.34 19.71 -12.68 15.42 -12 11 C-13.32 10.67 -14.64 10.34 -16 10 C-16 9.34 -16 8.68 -16 8 C-9.07 7.01 -9.07 7.01 -2 6 C-1.34 4.02 -0.68 2.04 0 0 Z " fill="#06A643" transform="translate(302,313)"/>
<path d="M0 0 C1.10021484 0.48726563 1.10021484 0.48726563 2.22265625 0.984375 C7.63808546 2.44043663 12.8555658 2.28887592 18.4375 2.25 C20.09749023 2.26160156 20.09749023 2.26160156 21.79101562 2.2734375 C27.5800225 2.25959648 32.54262305 1.97878991 38 0 C40.475 2.97 40.475 2.97 43 6 C42 8 41 10 40 12 C39.96234595 13.92807096 39.98732596 15.85752056 40.04296875 17.78515625 C40.06423828 18.95626953 40.08550781 20.12738281 40.10742188 21.33398438 C40.16022636 23.79261265 40.22505889 26.25101614 40.30273438 28.70898438 C40.45960027 39.34681566 38.21996686 46.40521742 30.92578125 54.19921875 C27.04793321 57.82536063 23.42607068 60.84837058 18 61.1875 C9.91647981 57.98777326 2.77619107 51.32878166 -0.8125 43.375 C-3.63329404 35.35800642 -3.18443528 28.29104694 -2 20 C-1.67703421 16.10239017 -1.42151249 12.96414585 -3.5 9.5 C-3.995 9.005 -4.49 8.51 -5 8 C-3.62845496 5.04590299 -2.01136276 2.55991624 0 0 Z M36 3 C35.34 4.98 34.68 6.96 34 9 C29.38 9.66 24.76 10.32 20 11 C20.33 11.99 20.66 12.98 21 14 C21.99 14 22.98 14 24 14 C23.85769192 15.41702513 23.71099254 16.8336096 23.5625 18.25 C23.48128906 19.03890625 23.40007812 19.8278125 23.31640625 20.640625 C23.02365007 22.82364639 22.57935581 24.8773182 22 27 C22.61875 27.0825 23.2375 27.165 23.875 27.25 C26 28 26 28 28 32 C22.06 32 16.12 32 10 32 C10.66 30.35 11.32 28.7 12 27 C12.99 26.67 13.98 26.34 15 26 C14.75443359 25.17242187 14.75443359 25.17242187 14.50390625 24.328125 C13.94239586 21.73385993 13.90260992 19.40164589 13.9375 16.75 C13.94652344 15.85796875 13.95554687 14.9659375 13.96484375 14.046875 C13.97644531 13.37140625 13.98804688 12.6959375 14 12 C9.50343896 9.75171948 5.92127034 9.83317728 1 10 C-2.40573396 29.13521941 -2.40573396 29.13521941 3.07421875 47.29296875 C6.83617341 52.58107135 11.96606237 58.21289022 18.5625 59.5 C24.99583751 58.56424182 29.97139177 53.66077255 33.875 48.625 C38.84046145 40.87613109 39.70873373 33.07724348 39 24 C38.505 22.515 38.505 22.515 38 21 C37.88340402 19.50323294 37.82501041 18.00124939 37.8125 16.5 C37.79832031 15.7265625 37.78414063 14.953125 37.76953125 14.15625 C38 12 38 12 40 9 C39.6878236 6.35367713 39.6878236 6.35367713 39 4 C38.01 3.67 37.02 3.34 36 3 Z " fill="#119B45" transform="translate(266,310)"/>
<path d="M0 0 C32.34 0 64.68 0 98 0 C98 2.31 98 4.62 98 7 C65.66 7 33.32 7 0 7 C0 4.69 0 2.38 0 0 Z " fill="#00A73F" transform="translate(165,322)"/>
<path d="M0 0 C4.95 0 9.9 0 15 0 C15 12.21 15 24.42 15 37 C10.05 37 5.1 37 0 37 C0 24.79 0 12.58 0 0 Z " fill="#F3F5ED" transform="translate(172,181)"/>
<path d="M0 0 C8.25 0 16.5 0 25 0 C25 9.9 25 19.8 25 30 C23.35 30 21.7 30 20 30 C20 31.65 20 33.3 20 35 C13.4 35 6.8 35 0 35 C0 31.7 0 28.4 0 25 C6.6 25 13.2 25 20 25 C20 20.05 20 15.1 20 10 C13.4 10 6.8 10 0 10 C0 6.7 0 3.4 0 0 Z " fill="#F2F2EB" transform="translate(275,206)"/>
<path d="M0 0 C7.26 0 14.52 0 22 0 C22 7.26 22 14.52 22 22 C14.74 22 7.48 22 0 22 C0 14.74 0 7.48 0 0 Z " fill="#F2F5ED" transform="translate(306,285)"/>
<path d="M0 0 C9.9 0 19.8 0 30 0 C30 1.65 30 3.3 30 5 C31.65 5 33.3 5 35 5 C35 13.25 35 21.5 35 30 C33.35 30 31.7 30 30 30 C30 31.65 30 33.3 30 35 C28.35 35 26.7 35 25 35 C25 31.7 25 28.4 25 25 C26.65 25 28.3 25 30 25 C30 20.05 30 15.1 30 10 C20.1 10 10.2 10 0 10 C0 6.7 0 3.4 0 0 Z " fill="#F2F2EB" transform="translate(265,246)"/>
<path d="M0 0 C4.92127034 -0.16682272 8.50343896 -0.24828052 13 2 C12.98839844 2.67546875 12.97679687 3.3509375 12.96484375 4.046875 C12.95582031 4.93890625 12.94679688 5.8309375 12.9375 6.75 C12.92589844 7.63171875 12.91429687 8.5134375 12.90234375 9.421875 C12.99173802 11.7818838 13.33087179 13.74498524 14 16 C12.35 16.33 10.7 16.66 9 17 C8.9175 18.0725 8.835 19.145 8.75 20.25 C7.90521971 24.47390145 6.97001013 25.11999018 4 28 C2.72234735 31.63543901 2.72234735 31.63543901 2 35 C-3.38164151 28.21445201 -2.62680108 20.32138805 -1.79931641 11.97607422 C-1.30394573 7.96736729 -0.67769922 3.98148294 0 0 Z " fill="#04AA43" transform="translate(267,320)"/>
<path d="M0 0 C13.86 0.33 27.72 0.66 42 1 C42 3.31 42 5.62 42 8 C27.81 8 13.62 8 -1 8 C-0.67 5.36 -0.34 2.72 0 0 Z " fill="#000201" transform="translate(308,314)"/>
<path d="M0 0 C2.64 0 5.28 0 8 0 C8 12.21 8 24.42 8 37 C5.36 37 2.72 37 0 37 C0 24.79 0 12.58 0 0 Z " fill="#000C04" transform="translate(194,181)"/>
<path d="M0 0 C1.10021484 0.48726563 1.10021484 0.48726563 2.22265625 0.984375 C7.63808546 2.44043663 12.8555658 2.28887592 18.4375 2.25 C20.09749023 2.26160156 20.09749023 2.26160156 21.79101562 2.2734375 C27.5800225 2.25959648 32.54262305 1.97878991 38 0 C40.475 2.97 40.475 2.97 43 6 C42 8 41 10 40 12 C39.96234595 13.92807096 39.98732596 15.85752056 40.04296875 17.78515625 C40.06423828 18.95626953 40.08550781 20.12738281 40.10742188 21.33398438 C40.16022636 23.79261265 40.22505889 26.25101614 40.30273438 28.70898438 C40.45960027 39.34681566 38.21996686 46.40521742 30.92578125 54.19921875 C27.04793321 57.82536063 23.42607068 60.84837058 18 61.1875 C9.91647981 57.98777326 2.77619107 51.32878166 -0.8125 43.375 C-3.63329404 35.35800642 -3.18443528 28.29104694 -2 20 C-1.67703421 16.10239017 -1.42151249 12.96414585 -3.5 9.5 C-3.995 9.005 -4.49 8.51 -5 8 C-3.62845496 5.04590299 -2.01136276 2.55991624 0 0 Z M0 2 C-1.75651531 3.61694804 -1.75651531 3.61694804 -3 6 C-2.69320313 6.77859375 -2.38640625 7.5571875 -2.0703125 8.359375 C-0.76512994 12.79890109 -0.97094852 16.56982933 -1.13110352 21.16455078 C-1.88421313 36.63856392 -1.88421313 36.63856392 5 50 C10.87389262 56.24375212 10.87389262 56.24375212 18.5625 59.5 C24.99583751 58.56424182 29.97139177 53.66077255 33.875 48.625 C38.84046145 40.87613109 39.70873373 33.07724348 39 24 C38.505 22.515 38.505 22.515 38 21 C37.88340402 19.50323294 37.82501041 18.00124939 37.8125 16.5 C37.79832031 15.7265625 37.78414063 14.953125 37.76953125 14.15625 C38 12 38 12 40 9 C39.99843776 6.40882687 39.99843776 6.40882687 39 4 C37.03241727 2.63979849 37.03241727 2.63979849 35 2 C34.67 2.33 34.34 2.66 34 3 C30.56084239 3.06080279 27.13578657 3.02089427 23.69726562 2.9609375 C19.98241542 2.92193645 16.43394954 3.02219092 12.75390625 3.55859375 C9.38034627 3.95527666 7.23113412 3.92077 4 3.0625 C3.236875 2.86785156 2.47375 2.67320312 1.6875 2.47265625 C1.130625 2.31667969 0.57375 2.16070312 0 2 Z " fill="#BCBFBD" transform="translate(266,310)"/>
<path d="M0 0 C2.31 0 4.62 0 7 0 C7 11.88 7 23.76 7 36 C4.69 36 2.38 36 0 36 C0 24.12 0 12.24 0 0 Z " fill="#010201" transform="translate(306,226)"/>
<path d="M0 0 C11.88 0 23.76 0 36 0 C36 2.31 36 4.62 36 7 C24.12 7 12.24 7 0 7 C0 4.69 0 2.38 0 0 Z " fill="#00AE42" transform="translate(306,174)"/>
<path d="M0 0 C0.99 0.33 1.98 0.66 3 1 C2.34 1.391875 1.68 1.78375 1 2.1875 C-1.25469591 3.84473993 -1.25469591 3.84473993 -1.375 6.5625 C-1.21896136 9.17528109 -1.21896136 9.17528109 1 11 C4.04182893 11.25005386 4.04182893 11.25005386 7 11 C8.30746709 9.90076459 8.30746709 9.90076459 8.3125 7.1875 C8.29334556 3.89328722 8.29334556 3.89328722 6 1.625 C5.34 1.08875 4.68 0.5525 4 0 C5.65 0.33 7.3 0.66 9 1 C9.33 1.99 9.66 2.98 10 4 C10.66 4 11.32 4 12 4 C12.66 2.68 13.32 1.36 14 0 C21.32215357 -0.36010591 21.32215357 -0.36010591 24 1.0625 C25.60856522 4.17909511 25.42213381 6.56262469 25 10 C23.375 12.4375 23.375 12.4375 21 14 C16.89222251 14.50299316 15.49124017 14.32749345 12 12 C12 11.34 12 10.68 12 10 C11.154375 10.680625 10.30875 11.36125 9.4375 12.0625 C5.30015454 14.39445835 3.51307273 14.21505804 -1 13 C-3 11 -3 11 -3.3125 7.0625 C-3.25612142 4.23844574 -3.23113287 3.30817716 -1.5 1 C-1.005 0.67 -0.51 0.34 0 0 Z " fill="#90170D" transform="translate(274,344)"/>
<path d="M0 0 C0.05447047 1.41623216 0.09300508 2.83308191 0.125 4.25 C0.14820313 5.03890625 0.17140625 5.8278125 0.1953125 6.640625 C-0.0171622 9.20731941 -0.71345895 10.7916067 -2 13 C-0.35 13.33 1.3 13.66 3 14 C3.33 15.32 3.66 16.64 4 18 C-1.94 18 -7.88 18 -14 18 C-13.67 16.35 -13.34 14.7 -13 13 C-11.68 12.67 -10.36 12.34 -9 12 C-9.33 11.34 -9.66 10.68 -10 10 C-10.90130707 2.21329797 -10.90130707 2.21329797 -8.375 -1.1875 C-5.04392448 -2.32707847 -3.15583374 -1.36274639 0 0 Z " fill="#969695" transform="translate(290,324)"/>
<path d="M0 0 C0.66 0.33 1.32 0.66 2 1 C1.34 2.65 0.68 4.3 0 6 C5.94 6 11.88 6 18 6 C15.89609059 1.76421208 15.89609059 1.76421208 12 0 C14.3125 -0.25 14.3125 -0.25 17 0 C18.8125 1.8125 18.8125 1.8125 20 4 C20 4.99 20 5.98 20 7 C19.36191406 7.19335938 18.72382813 7.38671875 18.06640625 7.5859375 C17.24011719 7.84632813 16.41382813 8.10671875 15.5625 8.375 C14.73878906 8.63023437 13.91507812 8.88546875 13.06640625 9.1484375 C10.82201984 9.80882227 10.82201984 9.80882227 10 12 C8 12 8 12 6.375 10.5 C5.92125 10.005 5.4675 9.51 5 9 C5.99 10.485 5.99 10.485 7 12 C7.25 15.0625 7.25 15.0625 7 18 C5 20 5 20 2.0625 20.3125 C-1 20 -1 20 -2.875 18.8125 C-4.42229478 16.31963619 -4.50405716 14.88032665 -4 12 C-2 10.1875 -2 10.1875 0 9 C-0.66 8.34 -1.32 7.68 -2 7 C-1.43181818 1.43181818 -1.43181818 1.43181818 0 0 Z " fill="#07752C" transform="translate(276,336)"/>
<path d="M0 0 C0.66 0.33 1.32 0.66 2 1 C2.0905205 6.15966845 1.73106311 10.88255826 1 16 C0.4025762 25.11071292 2.41527849 33.02368435 8.26171875 40.17578125 C12.01866284 44.1184619 15.91788396 47.11399317 20.9375 49.25 C26.85759612 48.76672685 31.09990349 45.02245121 35.0625 40.8046875 C41.21654286 33.24034316 42.24245675 26.86288057 42.65625 17.2421875 C42.97255731 14.25883442 43.44583544 12.51925062 45 10 C45.536613 22.84890028 45.43471908 32.0828309 36.75 42.3125 C28.96729359 50.41469353 28.96729359 50.41469353 24 52 C16.41988219 51.5800205 10.32707726 46.5695977 5.28515625 41.16015625 C0.44193603 34.66818021 -1.49149968 28.81034747 -1.25 20.8125 C-1.23904297 20.07652588 -1.22808594 19.34055176 -1.21679688 18.58227539 C-1.09248895 12.36620371 -0.66699024 6.18157022 0 0 Z " fill="#474945" transform="translate(263,321)"/>
<path d="M0 0 C7.26 0 14.52 0 22 0 C22 2.31 22 4.62 22 7 C14.74 7 7.48 7 0 7 C0 4.69 0 2.38 0 0 Z " fill="#F4F6EE" transform="translate(172,226)"/>
<path d="M0 0 C0.33 0 0.66 0 1 0 C1.103125 1.11375 1.20625 2.2275 1.3125 3.375 C1.539375 4.57125 1.76625 5.7675 2 7 C4.87861224 9.36222486 4.87861224 9.36222486 8.4375 8.75 C11.3767252 8.13121575 13.45698571 7.52580857 16 6 C16 6.66 16 7.32 16 8 C16.56589844 8.10957031 17.13179688 8.21914063 17.71484375 8.33203125 C18.44832031 8.49058594 19.18179687 8.64914062 19.9375 8.8125 C20.66839844 8.96332031 21.39929688 9.11414063 22.15234375 9.26953125 C22.76207031 9.51058594 23.37179687 9.75164062 24 10 C24.33 10.99 24.66 11.98 25 13 C12.5872905 16.08938547 12.5872905 16.08938547 7.625 14 C7.08875 13.67 6.5525 13.34 6 13 C6.99 14.65 7.98 16.3 9 18 C4.53580239 15.98673441 1.35219275 13.34626618 -1 9 C-1.20481131 5.85289939 -0.76087376 3.05041206 0 0 Z " fill="#049839" transform="translate(270,348)"/>
<path d="M0 0 C2.9375 0.8125 2.9375 0.8125 4.9375 3.8125 C4.6133631 7.13490324 4.32973697 8.42026303 1.9375 10.8125 C-1.0625 11.0625 -1.0625 11.0625 -4.0625 10.8125 C-6.0625 8.8125 -6.0625 8.8125 -6.375 5.3125 C-6.271875 4.1575 -6.16875 3.0025 -6.0625 1.8125 C-3.0625 -0.1875 -3.0625 -0.1875 0 0 Z " fill="#0E6627" transform="translate(293.0625,345.1875)"/>
<path d="M0 0 C0.33 0 0.66 0 1 0 C1.536613 12.84890028 1.43471908 22.0828309 -7.25 32.3125 C-11.0112554 36.23459856 -14.85656303 40.00971352 -20 42 C-23 41.8125 -23 41.8125 -25 41 C-25 40.67 -25 40.34 -25 40 C-24.1646875 39.79697266 -24.1646875 39.79697266 -23.3125 39.58984375 C-14.91507856 37.22097655 -9.38493287 32.8545094 -5.0625 25.25 C-2.58518161 20.44652162 -1.81741228 16.46417692 -1.5 11.0625 C-1.05517782 3.50846627 -1.05517782 3.50846627 0 0 Z " fill="#575353" transform="translate(307,331)"/>
<path d="M0 0 C0.66 0.33 1.32 0.66 2 1 C1.34 2.65 0.68 4.3 0 6 C5.94 6 11.88 6 18 6 C15.89609059 1.76421208 15.89609059 1.76421208 12 0 C14.3125 -0.25 14.3125 -0.25 17 0 C18.8125 1.8125 18.8125 1.8125 20 4 C20 4.99 20 5.98 20 7 C19.36191406 7.19335938 18.72382813 7.38671875 18.06640625 7.5859375 C17.24011719 7.84632813 16.41382813 8.10671875 15.5625 8.375 C14.73878906 8.63023437 13.91507812 8.88546875 13.06640625 9.1484375 C10.82201984 9.80882227 10.82201984 9.80882227 10 12 C9.34 12 8.68 12 8 12 C7.566875 11.484375 7.13375 10.96875 6.6875 10.4375 C6.130625 9.963125 5.57375 9.48875 5 9 C2.34533951 9.23043864 2.34533951 9.23043864 0 10 C-2 7 -2 7 -1.6875 3.875 C-1 1 -1 1 0 0 Z " fill="#3F5F40" transform="translate(276,336)"/>
<path d="M0 0 C0.33 0 0.66 0 1 0 C1 2.31 1 4.62 1 7 C3.31 7 5.62 7 8 7 C8 9.31 8 11.62 8 14 C5.69 14 3.38 14 1 14 C0.04738513 9.23692563 -0.08333357 4.8333472 0 0 Z " fill="#14B24F" transform="translate(342,263)"/>
<path d="M0 0 C3.1875 0.875 3.1875 0.875 6 2 C6 3.65 6 5.3 6 7 C2.7 7 -0.6 7 -4 7 C-3.6875 4.625 -3.6875 4.625 -3 2 C-2.01 1.34 -1.02 0.68 0 0 Z " fill="#94160D" transform="translate(284,322)"/>
<path d="M0 0 C0.33 0.66 0.66 1.32 1 2 C12.55 2 24.1 2 36 2 C36 2.33 36 2.66 36 3 C18.675 3.495 18.675 3.495 1 4 C1 7.63 1 11.26 1 15 C-0.84022746 11.31954508 -1.2580902 10.21254016 -1.1875 6.375 C-1.17783203 5.21097656 -1.17783203 5.21097656 -1.16796875 4.0234375 C-1 2 -1 2 0 0 Z " fill="#116731" transform="translate(306,320)"/>
<path d="M0 0 C0.99 0 1.98 0 3 0 C3 0.66 3 1.32 3 2 C7.95 2 12.9 2 18 2 C18 2.99 18 3.98 18 5 C12.52077804 6.16579191 7.22476481 6.35167622 2 4 C0.73828125 1.91796875 0.73828125 1.91796875 0 0 Z " fill="#006C28" transform="translate(267,316)"/>
<path d="M0 0 C4.455 0.99 4.455 0.99 9 2 C9 2.33 9 2.66 9 3 C6.36 3.33 3.72 3.66 1 4 C1.66 5.32 2.32 6.64 3 8 C2.34 8 1.68 8 1 8 C1 11.3 1 14.6 1 18 C0.67 18 0.34 18 0 18 C-0.33776684 16.2508503 -0.67003671 14.50063855 -1 12.75 C-1.185625 11.77546875 -1.37125 10.8009375 -1.5625 9.796875 C-2.21987015 5.59440154 -2.40766779 3.61150168 0 0 Z " fill="#26904E" transform="translate(266,312)"/>
<path d="M0 0 C2.31 0 4.62 0 7 0 C7 2.31 7 4.62 7 7 C4.69 7 2.38 7 0 7 C0 4.69 0 2.38 0 0 Z " fill="#00AE42" transform="translate(343,315)"/>
<path d="M0 0 C2.31 0 4.62 0 7 0 C7 2.31 7 4.62 7 7 C4.69 7 2.38 7 0 7 C0 4.69 0 2.38 0 0 Z " fill="#F7F7F0" transform="translate(202,226)"/>
<path d="M0 0 C2.9375 0.75 2.9375 0.75 6 2 C6.33 3.32 6.66 4.64 7 6 C2.38 6 -2.24 6 -7 6 C-6.67 5.01 -6.34 4.02 -6 3 C-5.195625 2.87625 -4.39125 2.7525 -3.5625 2.625 C-2.716875 2.41875 -1.87125 2.2125 -1 2 C-0.67 1.34 -0.34 0.68 0 0 Z " fill="#D5D4D4" transform="translate(287,336)"/>
<path d="M0 0 C0.33 0 0.66 0 1 0 C1.061875 1.051875 1.12375 2.10375 1.1875 3.1875 C2.14671118 7.68841402 3.69304744 8.94106888 7 12 C7.75 14.1875 7.75 14.1875 8 16 C8.33 16.66 8.66 17.32 9 18 C4.53580239 15.98673441 1.35219275 13.34626618 -1 9 C-1.20481131 5.85289939 -0.76087376 3.05041206 0 0 Z " fill="#1A8B3E" transform="translate(270,348)"/>
<path d="M0 0 C2.3125 -0.25 2.3125 -0.25 5 0 C6.8125 1.8125 6.8125 1.8125 8 4 C8 4.99 8 5.98 8 7 C-0.71695179 9.51166407 -0.71695179 9.51166407 -5 8 C-5.66 7.34 -6.32 6.68 -7 6 C-2.71 6 1.58 6 6 6 C3.89609059 1.76421208 3.89609059 1.76421208 0 0 Z " fill="#57725E" transform="translate(288,336)"/>
<path d="M0 0 C3.3 0 6.6 0 10 0 C10 1.32 10 2.64 10 4 C6.7 4.33 3.4 4.66 0 5 C0 3.35 0 1.7 0 0 Z " fill="#87837C" transform="translate(280,329)"/>
<path d="M0 0 C0.99 0.33 1.98 0.66 3 1 C2.34 1.391875 1.68 1.78375 1 2.1875 C-1.25469591 3.84473993 -1.25469591 3.84473993 -1.375 6.5625 C-1.21896136 9.17528109 -1.21896136 9.17528109 1 11 C5.14509433 11.28602162 5.14509433 11.28602162 9 10 C8.67 10.99 8.34 11.98 8 13 C1.80645161 14.3101737 1.80645161 14.3101737 -1.4375 13.0625 C-3.53104354 10.29902253 -3.49605105 8.27407089 -3.33984375 4.875 C-3 3 -3 3 -1.5 1 C-1.005 0.67 -0.51 0.34 0 0 Z " fill="#9E140C" transform="translate(274,344)"/>
<path d="M0 0 C1.58246707 -0.08153933 3.16616273 -0.13943557 4.75 -0.1875 C6.07257813 -0.23970703 6.07257813 -0.23970703 7.421875 -0.29296875 C10.44671583 0.05076316 11.75583602 1.00227459 14 3 C8.97703996 4.13016601 5.02125926 3.77916092 0 3 C0 2.01 0 1.02 0 0 Z " fill="#01A43F" transform="translate(270,315)"/>
<path d="M0 0 C7.32215357 -0.36010591 7.32215357 -0.36010591 10 1.0625 C11.58433618 4.13215135 11.36248449 6.61681143 11 10 C9.5 11.9375 9.5 11.9375 8 13 C8 10 8 10 8.6875 7.5 C9.25157211 5.00891781 9.25157211 5.00891781 7.9375 3.125 C5.09278149 1.47322796 3.09807413 2.24269299 0 3 C0 2.01 0 1.02 0 0 Z " fill="#882312" transform="translate(288,344)"/>
<path d="M0 0 C0.99 0.66 1.98 1.32 3 2 C2.01 3.485 2.01 3.485 1 5 C-2.0390625 5.51171875 -2.0390625 5.51171875 -5.625 5.6875 C-6.81351562 5.75324219 -8.00203125 5.81898438 -9.2265625 5.88671875 C-10.59941406 5.94279297 -10.59941406 5.94279297 -12 6 C-12 5.34 -12 4.68 -12 4 C-11.071875 3.855625 -10.14375 3.71125 -9.1875 3.5625 C-5.99274889 3.07899889 -5.99274889 3.07899889 -3 2 C-2.01 2.33 -1.02 2.66 0 3 C0 2.01 0 1.02 0 0 Z " fill="#006525" transform="translate(299,315)"/>
<path d="M0 0 C0.928125 0.20625 1.85625 0.4125 2.8125 0.625 C3.1425 1.945 3.4725 3.265 3.8125 4.625 C1.8325 3.965 -0.1475 3.305 -2.1875 2.625 C-2.5175 3.285 -2.8475 3.945 -3.1875 4.625 C-4.1775 4.625 -5.1675 4.625 -6.1875 4.625 C-6.1875 3.635 -6.1875 2.645 -6.1875 1.625 C-3.1875 -0.375 -3.1875 -0.375 0 0 Z " fill="#108C36" transform="translate(293.1875,345.375)"/>
<path d="M0 0 C1.32 0.66 2.64 1.32 4 2 C4 2.99 4 3.98 4 5 C2.02 5 0.04 5 -2 5 C-2.33 4.34 -2.66 3.68 -3 3 C-2.34 3 -1.68 3 -1 3 C-0.67 2.01 -0.34 1.02 0 0 Z " fill="#032A11" transform="translate(291,347)"/>
<path d="M0 0 C1.4540625 0.0309375 1.4540625 0.0309375 2.9375 0.0625 C2.6075 1.0525 2.2775 2.0425 1.9375 3.0625 C1.133125 3.18625 0.32875 3.31 -0.5 3.4375 C-1.7684375 3.746875 -1.7684375 3.746875 -3.0625 4.0625 C-3.3925 4.7225 -3.7225 5.3825 -4.0625 6.0625 C-4.105221 4.39638095 -4.10313832 2.72867115 -4.0625 1.0625 C-3.0625 0.0625 -3.0625 0.0625 0 0 Z " fill="#04A23E" transform="translate(277.0625,345.9375)"/>
<path d="M0 0 C1.2065625 0.0309375 1.2065625 0.0309375 2.4375 0.0625 C2.7675 0.7225 3.0975 1.3825 3.4375 2.0625 C1.7875 2.7225 0.1375 3.3825 -1.5625 4.0625 C-1.5625 4.7225 -1.5625 5.3825 -1.5625 6.0625 C-2.5525 6.0625 -3.5425 6.0625 -4.5625 6.0625 C-3.48963568 0.08511307 -3.48963568 0.08511307 0 0 Z " fill="#C3C8C4" transform="translate(280.5625,335.9375)"/>
<path d="M0 0 C0.33 0.99 0.66 1.98 1 3 C-1.97 3.66 -4.94 4.32 -8 5 C-7 2 -7 2 -5.125 0.8125 C-3 0 -3 0 0 0 Z " fill="#00762B" transform="translate(294,358)"/>
<path d="M0 0 C2.39456443 2.39456443 2.75546876 3.65807308 3 7 C1.5625 8.8125 1.5625 8.8125 0 10 C-1.2380014 6.42355152 -0.74926071 3.66305234 0 0 Z " fill="#209144" transform="translate(299,348)"/>
<path d="M0 0 C1.32 0.66 2.64 1.32 4 2 C4 2.99 4 3.98 4 5 C2.02 5 0.04 5 -2 5 C-1.34 3.35 -0.68 1.7 0 0 Z " fill="#DB0007" transform="translate(285,324)"/>
<path d="M0 0 C2.64 0 5.28 0 8 0 C7.34 1.32 6.68 2.64 6 4 C4.02 3.34 2.04 2.68 0 2 C0 1.34 0 0.68 0 0 Z " fill="#ACB2AE" transform="translate(281,333)"/>
<path d="M0 0 C0.598125 0.226875 1.19625 0.45375 1.8125 0.6875 C0.6059375 1.2134375 0.6059375 1.2134375 -0.625 1.75 C-3.5742767 3.54417284 -3.5742767 3.54417284 -4 7.375 C-4.061875 8.468125 -4.12375 9.56125 -4.1875 10.6875 C-4.5175 10.6875 -4.8475 10.6875 -5.1875 10.6875 C-5.55141205 3.28795489 -5.55141205 3.28795489 -3.9375 0.625 C-2.1875 -0.3125 -2.1875 -0.3125 0 0 Z " fill="#147F33" transform="translate(284.1875,321.3125)"/>
<path d="M0 0 C1.65 0 3.3 0 5 0 C5.33 0.99 5.66 1.98 6 3 C4.02 3 2.04 3 0 3 C0 2.01 0 1.02 0 0 Z " fill="#06461B" transform="translate(289,353)"/>
<path d="M0 0 C0.33 1.32 0.66 2.64 1 4 C2.32 3.67 3.64 3.34 5 3 C4.67 4.65 4.34 6.3 4 8 C2 6.8125 2 6.8125 0 5 C-0.25 2.3125 -0.25 2.3125 0 0 Z " fill="#14431A" transform="translate(272,348)"/>
</svg>
